<svg id="Layer_1" data-name="Layer 1" xmlns="http://www.w3.org/2000/svg" viewBox="0 0 638 287.49"><defs><style>.cls-1{fill:#ff0001;}</style></defs><title>Airtel Logo Vector</title><g id="logo-en"><path class="cls-1" d="M814.11,574.91a7.54,7.54,0,0,1-7.34-7.73V480.36l-19.64,3v83.15c0,12.08,9.38,21.89,21,21.89H819V574.91Z" transform="translate(-181 -356.26)"/><polygon class="cls-1" points="405.92 232.17 425.55 232.17 425.55 149.53 405.92 152.56 405.92 232.17"/><path class="cls-1" d="M619,520.29v68.14h19.64v-54l-.11-6.38c0-10.08,22.64-8.15,22.64-8.15l7.08-15.45C636.92,495.51,619,520.29,619,520.29Z" transform="translate(-181 -356.26)"/><path class="cls-1" d="M694.11,567.18V519.33h11.8v-15h-11.8V480.36l-19.64,3v83.15c0,12.08,9.38,21.89,20.95,21.89h10.92V574.91h-4.89A7.54,7.54,0,0,1,694.11,567.18Z" transform="translate(-181 -356.26)"/><path class="cls-1" d="M596.74,473.11a12.15,12.15,0,1,0,12.15,12.15A12.15,12.15,0,0,0,596.74,473.11Z" transform="translate(-181 -356.26)"/><path class="cls-1" d="M743.52,573.14c-13-5-12.07-24.47-12.07-24.47H778.6c0-24.44-5.88-45.57-29.61-45.57S711.17,520.53,711.17,545s15.05,43.46,38.78,43.46c9.43,0,22.33-3.13,29.42-8.43l-6.72-11.69S756.55,578.12,743.52,573.14Zm2.73-55c11.27,0,13.52,15.92,13.52,15.92h-27S735,518.09,746.25,518.09Z" transform="translate(-181 -356.26)"/><path class="cls-1" d="M548.06,503.7a108.82,108.82,0,0,0-16.67,1.73c-7.86,1.5-15.74,6.91-15.74,6.91l6.25,12.83a32.22,32.22,0,0,1,20.6-7.56c16.74,0,14.38,16.78,14.38,16.78-32.61-6.68-48.63,10.06-48.18,27.31.2,7.84,1.28,15.78,10.19,21.68,28.54,18.89,56.25-8.58,56.25-8.58V529.23C575.14,515.57,563,503.7,548.06,503.7ZM556.44,572s-12.87,6-21.13,1.07-7.3-18.45.48-22.64,20.65-1.61,20.65-1.61Z" transform="translate(-181 -356.26)"/><path class="cls-1" d="M240.07,416.45c-88.84,80.47-56.8,107.24-35.55,117.56s49.57-3.85,85-31.53S406.87,421.37,426.19,448s19.74,79.4-63.09,148.93-100,28.86-59.12-3,33.37-51.08,14-53.86c-20.26-2.93-37.76,1.92-55.79,35,0,0-27.59,53.27,7.73,66.94,24.58,9.51,97.2-19.79,150.53-73.5,39.29-39.57,68-86.89,56-150C460.74,335.74,328.91,336,240.07,416.45Z" transform="translate(-181 -356.26)"/></g></svg>