<?xml version="1.0" encoding="UTF-8"?>
<svg xmlns="http://www.w3.org/2000/svg" xmlns:xlink="http://www.w3.org/1999/xlink" width="175.75pt" height="69.18pt" viewBox="0 0 175.75 69.18" version="1.1">
<defs>
<clipPath id="clip1">
  <path d="M 0 47 L 166 47 L 166 69.179688 L 0 69.179688 Z M 0 47 "/>
</clipPath>
<clipPath id="clip2">
  <path d="M 167 36 L 175.75 36 L 175.75 45 L 167 45 Z M 167 36 "/>
</clipPath>
</defs>
<g id="surface1">
<path style=" stroke:none;fill-rule:evenodd;fill:rgb(89.7995%,19.599915%,14.498901%);fill-opacity:1;" d="M 131.273438 3.105469 C 131.273438 1.757813 130.164063 0.566406 128.734375 0.566406 L 125 0.566406 C 123.652344 0.566406 122.539063 1.757813 122.539063 3.105469 L 122.539063 42.101563 C 122.539063 43.53125 123.652344 44.640625 125 44.640625 L 128.734375 44.640625 C 130.164063 44.640625 131.273438 43.449219 131.273438 42.101563 L 131.273438 3.105469 "/>
<path style=" stroke:none;fill-rule:evenodd;fill:rgb(89.7995%,19.599915%,14.498901%);fill-opacity:1;" d="M 136.039063 4.140625 L 136.039063 6.042969 C 136.039063 6.757813 136.675781 7.394531 137.390625 7.394531 L 163.121094 7.394531 C 164.3125 7.394531 165.265625 6.441406 165.265625 5.25 L 165.265625 2.152344 C 165.265625 0.960938 164.3125 -0.0703125 163.121094 0.0078125 C 163.121094 0.0078125 138.261719 2.472656 137.46875 2.550781 C 136.515625 2.628906 136.039063 3.425781 136.039063 4.140625 "/>
<path style=" stroke:none;fill-rule:evenodd;fill:rgb(89.7995%,19.599915%,14.498901%);fill-opacity:1;" d="M 115.234375 44.640625 C 108.800781 44.640625 104.75 39.796875 104.75 34.398438 L 104.75 18.75 L 102.921875 18.75 C 101.96875 18.75 101.175781 17.957031 101.175781 17.003906 L 101.175781 14.382813 C 101.175781 13.429688 101.96875 12.636719 102.921875 12.636719 L 104.75 12.636719 L 104.75 3.027344 C 104.75 1.675781 105.863281 0.644531 107.210938 0.644531 L 110.863281 0.644531 C 112.214844 0.644531 113.328125 1.675781 113.328125 3.105469 L 113.328125 12.636719 L 118.964844 12.636719 C 119.996094 12.636719 120.789063 13.429688 120.789063 14.382813 L 120.789063 17.003906 C 120.789063 17.957031 119.996094 18.75 118.964844 18.75 L 113.328125 18.75 L 113.328125 33.207031 C 113.328125 36.066406 115.074219 37.972656 118.09375 37.972656 L 118.648438 37.972656 C 119.679688 37.972656 120.554688 38.84375 120.554688 39.875 L 120.554688 42.734375 C 120.554688 43.769531 119.679688 44.640625 118.648438 44.640625 L 115.234375 44.640625 "/>
<path style=" stroke:none;fill-rule:evenodd;fill:rgb(89.7995%,19.599915%,14.498901%);fill-opacity:1;" d="M 47.96875 24.550781 C 48.285156 20.894531 51.460938 18.195313 55.351563 18.195313 C 59.164063 18.195313 62.421875 20.894531 62.738281 24.550781 Z M 71.394531 28.121094 C 71.394531 19.863281 66.472656 11.523438 55.351563 11.523438 C 44.949219 11.523438 39.152344 19.625 39.152344 28.121094 C 39.152344 37.257813 45.425781 45.199219 55.351563 45.199219 C 62.261719 45.199219 68.933594 41.625 70.203125 35.667969 C 70.441406 34.875 69.886719 33.839844 68.773438 33.839844 L 63.851563 33.839844 C 62.976563 33.839844 62.261719 34.316406 61.785156 34.953125 C 60.4375 36.9375 58.371094 38.050781 55.351563 38.050781 C 51.066406 38.050781 48.125 34.714844 47.886719 30.980469 L 68.617188 30.980469 C 70.601563 30.980469 71.394531 29.949219 71.394531 28.121094 "/>
<path style=" stroke:none;fill-rule:evenodd;fill:rgb(89.7995%,19.599915%,14.498901%);fill-opacity:1;" d="M 142.632813 24.550781 C 142.949219 20.894531 146.203125 18.195313 150.015625 18.195313 C 153.828125 18.195313 157.164063 20.894531 157.484375 24.550781 Z M 166.140625 28.121094 C 166.140625 19.863281 161.214844 11.523438 150.015625 11.523438 C 139.691406 11.523438 133.894531 19.625 133.894531 28.121094 C 133.894531 37.257813 140.089844 45.199219 150.097656 45.199219 C 156.925781 45.199219 163.675781 41.625 164.949219 35.667969 C 165.105469 34.875 164.550781 33.839844 163.4375 33.839844 L 158.59375 33.839844 C 157.71875 33.839844 156.925781 34.316406 156.53125 34.953125 C 155.101563 36.9375 153.113281 38.050781 150.015625 38.050781 C 145.808594 38.050781 142.789063 34.714844 142.550781 30.980469 L 163.359375 30.980469 C 165.265625 30.980469 166.140625 29.949219 166.140625 28.121094 "/>
<path style=" stroke:none;fill-rule:evenodd;fill:rgb(89.7995%,19.599915%,14.498901%);fill-opacity:1;" d="M 97.761719 1.042969 L 30.496094 1.042969 C 28.90625 1.042969 27.714844 2.3125 27.714844 3.820313 L 27.953125 30.265625 C 27.953125 30.265625 13.421875 4.058594 12.628906 2.710938 C 11.992188 1.4375 10.402344 0.328125 8.339844 0.328125 L 2.78125 0.328125 C 1.269531 0.328125 0 1.519531 0 3.105469 L 0 41.863281 C 0 43.371094 1.269531 44.640625 2.78125 44.640625 L 6.355469 44.640625 C 7.863281 44.640625 9.132813 43.371094 9.132813 41.863281 L 8.894531 14.621094 C 8.894531 14.621094 23.507813 41.148438 24.144531 42.179688 C 25.015625 43.609375 26.445313 44.640625 28.511719 44.640625 L 33.59375 44.640625 C 35.101563 44.640625 36.371094 43.371094 36.371094 41.863281 L 36.371094 7.632813 L 97.761719 7.632813 C 98.875 7.632813 99.667969 6.757813 99.667969 5.726563 L 99.667969 2.949219 C 99.667969 1.914063 98.875 1.042969 97.761719 1.042969 "/>
<path style=" stroke:none;fill-rule:evenodd;fill:rgb(89.7995%,19.599915%,14.498901%);fill-opacity:1;" d="M 86.882813 17.878906 C 89.820313 17.878906 92.042969 18.910156 92.835938 20.738281 C 93.15625 21.691406 93.949219 21.847656 94.902344 21.847656 L 98.953125 21.847656 C 99.589844 21.847656 100.382813 21.214844 100.382813 20.417969 C 100.382813 15.734375 94.824219 11.523438 86.882813 11.523438 C 78.703125 11.523438 73.378906 15.414063 73.378906 21.609375 C 73.378906 26.375 77.113281 29.15625 81.71875 30.425781 C 83.785156 30.980469 87.359375 31.855469 89.105469 32.332031 C 91.011719 32.808594 92.679688 33.363281 92.679688 34.953125 C 92.679688 37.496094 90.058594 38.367188 87.121094 38.367188 C 84.339844 38.367188 81.558594 37.175781 80.765625 35.191406 C 80.289063 34 79.496094 33.839844 78.304688 33.839844 L 74.175781 33.839844 C 73.460938 33.839844 72.664063 34.476563 72.664063 35.429688 L 72.664063 35.90625 C 72.664063 40.433594 78.703125 45.199219 87.121094 45.199219 C 93.074219 45.199219 101.335938 42.734375 101.335938 34.792969 C 101.335938 30.109375 98.238281 26.929688 93.234375 25.660156 C 91.25 25.183594 86.484375 23.992188 85.53125 23.675781 C 83.625 23.199219 81.957031 22.644531 81.957031 21.054688 C 81.957031 18.671875 84.179688 17.878906 86.882813 17.878906 "/>
<g clip-path="url(#clip1)" clip-rule="nonzero">
<path style=" stroke:none;fill-rule:evenodd;fill:rgb(89.7995%,19.599915%,14.498901%);fill-opacity:1;" d="M 0.316406 54.964844 C 70.125 32.96875 123.492188 72.121094 165.265625 47.976563 C 138.105469 85.9375 53.128906 36.304688 0.316406 69.179688 L 0.316406 54.964844 "/>
</g>
<g clip-path="url(#clip2)" clip-rule="nonzero">
<path style=" stroke:none;fill-rule:evenodd;fill:rgb(89.7995%,19.599915%,14.498901%);fill-opacity:1;" d="M 171.699219 40.511719 C 172.332031 40.511719 172.808594 40.511719 172.808594 39.796875 C 172.808594 39.242188 172.332031 39.164063 171.855469 39.164063 L 170.902344 39.164063 L 170.902344 40.511719 Z M 170.902344 43.132813 L 170.1875 43.132813 L 170.1875 38.527344 L 171.9375 38.527344 C 173.046875 38.527344 173.523438 38.925781 173.523438 39.875 C 173.523438 40.671875 173.046875 40.988281 172.332031 41.066406 L 173.683594 43.132813 L 172.890625 43.132813 L 171.699219 41.148438 L 170.902344 41.148438 Z M 171.699219 44.085938 C 173.523438 44.085938 174.953125 42.734375 174.953125 40.828125 C 174.953125 38.925781 173.523438 37.574219 171.699219 37.574219 C 169.949219 37.574219 168.519531 38.925781 168.519531 40.828125 C 168.519531 42.734375 169.949219 44.085938 171.699219 44.085938 Z M 167.726563 40.828125 C 167.726563 38.527344 169.554688 36.859375 171.699219 36.859375 C 173.84375 36.859375 175.746094 38.527344 175.746094 40.828125 C 175.746094 43.132813 173.84375 44.800781 171.699219 44.800781 C 169.554688 44.800781 167.726563 43.132813 167.726563 40.828125 "/>
</g>
</g>
</svg>
